<?xml version="1.0" standalone="no"?>
<!DOCTYPE svg PUBLIC "-//W3C//DTD SVG 1.1//EN" "http://www.w3.org/Graphics/SVG/1.1/DTD/svg11.dtd" >
<svg xmlns="http://www.w3.org/2000/svg" xmlns:xlink="http://www.w3.org/1999/xlink" version="1.1" viewBox="-10 0 438 512">
   <path fill="currentColor"
d="M400 119q8 0 8 8v360q0 8 -8 8h-270v0q-8 0 -8 -8v-18h252q8 0 8 -7v-343h18zM358 436q0 8 -8 8h-272q-8 0 -8 -8v-18h254q8 0 8 -7v-343h18q8 0 8 8v360zM306 385q0 8 -8 8h-270q-8 0 -8 -8v-360q0 -8 8 -8h270q8 0 8 8v360z" />
</svg>
