<?xml version="1.0" standalone="no"?>
<!DOCTYPE svg PUBLIC "-//W3C//DTD SVG 1.1//EN" "http://www.w3.org/Graphics/SVG/1.1/DTD/svg11.dtd" >
<svg xmlns="http://www.w3.org/2000/svg" xmlns:xlink="http://www.w3.org/1999/xlink" version="1.1" viewBox="-10 0 438 512">
   <path fill="currentColor"
d="M228 197v-110h54v110h-54zM400 98q4 4 4 9v1v324v0q0 12 -12 12h-40v-169q0 -11 -12 -11v0v0h-252h-2v0q-10 2 -10 11v1v0v156v12h-40q-12 0 -12 -12v-168v-49v-135q0 -12 12 -12v0h68q2 0 4 2t2 3v130q0 5 4 8.5t8 3.5h176v0q14 0 14 -12v-130q0 -2 2 -4q0 -1 4 -1v0h46
q4 0 8 4z" />
</svg>
