<?xml version="1.0" encoding="UTF-8" standalone="no"?>
<svg
   xmlns:dc="http://purl.org/dc/elements/1.1/"
   xmlns:cc="http://creativecommons.org/ns#"
   xmlns:rdf="http://www.w3.org/1999/02/22-rdf-syntax-ns#"
   xmlns:svg="http://www.w3.org/2000/svg"
   xmlns="http://www.w3.org/2000/svg"
   xmlns:sodipodi="http://sodipodi.sourceforge.net/DTD/sodipodi-0.dtd"
   xmlns:inkscape="http://www.inkscape.org/namespaces/inkscape"
   version="1.1"
   viewBox="-10 0 740 740"
   id="svg6"
   sodipodi:docname="codion_logo.svg"
   width="740"
   height="740"
   inkscape:version="0.92.5 (2060ec1f9f, 2020-04-08)">
  <metadata
     id="metadata12">
    <rdf:RDF>
      <cc:Work
         rdf:about="">
        <dc:format>image/svg+xml</dc:format>
        <dc:type
           rdf:resource="http://purl.org/dc/dcmitype/StillImage" />
        <dc:title></dc:title>
      </cc:Work>
    </rdf:RDF>
  </metadata>
  <defs
     id="defs10" />
  <sodipodi:namedview
     pagecolor="#ffffff"
     bordercolor="#666666"
     borderopacity="1"
     objecttolerance="10"
     gridtolerance="10"
     guidetolerance="10"
     inkscape:pageopacity="0"
     inkscape:pageshadow="2"
     inkscape:window-width="1482"
     inkscape:window-height="1026"
     id="namedview8"
     showgrid="false"
     inkscape:zoom="0.944"
     inkscape:cx="282.91341"
     inkscape:cy="370.85847"
     inkscape:window-x="527"
     inkscape:window-y="301"
     inkscape:window-maximized="0"
     inkscape:current-layer="svg6" />
  <g
     transform="matrix(1,0,0,-1,-40,698)"
     id="g4">
    <path
       d="m 615.42,137.2 c -39.5996,0 -73.0391,14.0068 -100.32,42.0195 -27.2793,28.0137 -40.9199,64.6074 -40.9199,109.78 0,44.293 13.4941,80.666 40.4805,109.12 26.9863,28.4531 61.4531,42.6797 103.4,42.6797 42.2402,0 76.7793,-14.1533 103.619,-42.459 26.8398,-28.3076 40.2598,-65.3408 40.2598,-111.101 0,-44.2939 -13.5664,-80.374 -40.6992,-108.24 -27.1348,-27.8662 -62.4062,-41.7998 -105.82,-41.7998 z m 96.361,150.48 c 0,21.1201 -2.05469,39.8936 -6.16211,56.3203 -4.10547,16.4268 -9.3125,29.627 -15.6191,39.5996 -6.30664,9.97363 -13.7129,18.1865 -22.2188,24.6406 -8.50781,6.45312 -16.7949,10.8535 -24.8613,13.2002 -8.06641,2.3457 -16.3535,3.51953 -24.8594,3.51953 -14.373,0 -27.2793,-3.08008 -38.7207,-9.23926 -11.4395,-6.16113 -20.459,-13.8613 -27.0586,-23.1006 -6.60156,-9.24023 -12.1016,-20.166 -16.5,-32.7793 -4.40039,-12.6143 -7.4082,-24.7139 -9.02148,-36.3008 -1.61328,-11.5859 -2.41992,-23.3936 -2.41992,-35.4199 0,-14.9609 1.4668,-29.627 4.40039,-44 2.93359,-14.374 7.62695,-28.7471 14.0801,-43.1201 6.45315,-14.373 16.0605,-25.96 28.8203,-34.7598 12.7598,-8.7998 27.9395,-13.2002 45.5391,-13.2002 17.8945,0 33.3672,4.40039 46.4199,13.2002 13.0547,8.7998 22.8809,20.3867 29.4805,34.7598 6.5996,14.3731 11.3672,28.7461 14.3008,43.1201 2.93359,14.373 4.40039,28.8936 4.40039,43.5596 z M 38.0605,325 c 0,104 32,188.5 96,253.5 64,65 143.666,97.5 239,97.5 42.666,0 82.666,-5.5 120,-16.5 37.333,-11 59,-16.5 65,-16.5 22,0 36,11 42,33 h 21 l 9,-226 h -23 c -36.667,124 -108.334,186 -215,186 -72.667,0 -130.5,-27 -173.5,-81 -43,-54 -64.5,-126.333 -64.5,-217 0,-58 7.5,-108.167 22.5,-150.5 15,-42.333 35.166,-74.333 60.5,-96 25.333,-21.667 51.5,-37.333 78.5,-47 27,-9.667 55.833,-14.5 86.5,-14.5 78.666,0 153,33.667 223,101 l 18,-18 c -30.667,-40.667 -69.667,-72 -117,-94 -47.334,-22 -99.334,-33 -156,-33 -98.667,0 -178.667,31 -240,93 -61.334,62 -92,144 -92,246 z"
       id="path2"
       inkscape:connector-curvature="0"
       style="fill:currentColor" />
  </g>
</svg>
